<svg viewBox="0 0 706.31 84.45" xmlns="http://www.w3.org/2000/svg"><g fill="#1d1d1b"><path d="m26.15 61.88-16.25-30.36v30.36h-9.9v-61.88h18.65c10.15 0 17.41 5.61 17.41 16.09v2.48c0 9.24-5.78 14.36-13.7 15.76l15.59 27.56h-11.8zm-16.25-52.8v17.32h7.92c5.12 0 8.33-2.48 8.33-8.66v-.82c0-5.69-3.22-7.84-8.33-7.84z"/><path d="m82.01 44.55h-31.02c1.07 6.02 5.03 9.49 11.14 9.49 4.37 0 6.93-1.65 8.25-4.54h10.73c-2.48 8.58-9.65 13.2-19.39 13.2-11.8 0-20.46-8.83-20.46-21.45s8.66-21.45 20.46-21.45 20.46 8.83 20.46 21.45c0 1.16-.08 2.23-.17 3.3zm-30.94-7.01h21.29c-1.07-5.78-4.87-9.07-10.64-9.07s-9.57 3.3-10.64 9.07z"/><path d="m120.12 56.68c-3.05 3.8-7.43 6.02-12.38 6.02-11.3 0-19.8-8.83-19.8-21.45s8.5-21.45 19.8-21.45c4.95 0 9.32 2.23 12.38 6.02v-25.82h9.9v61.88h-9.9zm-22.28-15.43c0 7.43 4.79 12.38 11.14 12.38s11.14-4.95 11.14-12.38-4.79-12.38-11.14-12.38-11.14 4.95-11.14 12.38z"/><path d="m158.89 83.33c-10.97 0-19.14-7.34-20.63-18.15h9.98c.91 5.45 4.95 9.08 10.64 9.08 6.77 0 10.73-5.12 10.73-12.38v-5.2c-3.05 3.8-7.43 6.02-12.38 6.02-11.3 0-19.8-8.83-19.8-21.45s8.5-21.45 19.8-21.45c4.95 0 9.32 2.23 12.38 6.02v-5.2h9.9v41.26c0 12.62-9.24 21.45-20.63 21.45zm10.73-42.08c0-7.42-4.79-12.38-11.14-12.38s-11.14 4.95-11.14 12.38 4.79 12.38 11.14 12.38 11.14-4.95 11.14-12.38z"/><path d="m227.7 44.55h-31.02c1.07 6.02 5.03 9.49 11.14 9.49 4.37 0 6.93-1.65 8.25-4.54h10.73c-2.48 8.58-9.65 13.2-19.39 13.2-11.8 0-20.46-8.83-20.46-21.45s8.66-21.45 20.46-21.45 20.46 8.83 20.46 21.45c0 1.16-.08 2.23-.17 3.3zm-30.94-7.01h21.29c-1.07-5.78-4.87-9.07-10.64-9.07s-9.57 3.3-10.64 9.07z"/><path d="m278.6 23.91-2.04-8.59c-1.06-3.8-1.95-5.13-13.63-5.31h-.18v46.91c0 .8.62 1.15 3.1 1.42l5.31.44.27 3.1h-25.75l.27-3.1 5.31-.44c2.3-.27 3.1-.8 3.1-1.59v-46.73h-.18c-11.06 0-12.83.53-13.98 4.42l-2.48 9.47h-4.42l1.5-17.35h48.06v17.35h-4.25z"/><path d="m302.14 63.21c-10.44 0-17.79-8.67-17.79-19.82 0-13.19 9.29-22.48 20.62-22.48 8.41 0 13.81 5.31 13.81 13.28 0 1.42-.18 3.36-.53 4.78l-26.28-.35v.97c0 10.18 5.84 17.26 13.72 17.26 3.72 0 7.79-1.33 10.8-4.69l1.77.97c-3.27 6.46-9.12 10.09-16.11 10.09zm.88-39.03c-4.78 0-9.74 4.16-10.8 11.59h18.41c.44-7.17-2.74-11.59-7.61-11.59z"/><path d="m342.05 63.21c-10.44 0-17.79-8.67-17.79-19.82 0-13.19 9.82-22.48 20.97-22.48 8.14 0 12.57 4.25 12.57 8.5 0 3.81-2.83 4.78-4.96 4.78-3.36 0-5.66-3.81-4.69-8.23v-.18c-1.24-.88-2.92-1.42-4.87-1.42-6.37 0-11.42 5.58-11.42 14.96 0 10 5.84 17.52 13.72 17.52 3.72 0 7.79-1.33 10.8-4.69l1.77.97c-3.27 6.46-9.12 10.09-16.11 10.09z"/><path d="m386.48 61.88.26-3.1 2.3-.27c2.57-.18 3.01-.8 3.01-1.68v-18.5c0-8.67-2.83-11.33-8.14-11.33-3.8 0-7.43 1.95-9.82 3.72v26.2c0 .88.53 1.42 3.36 1.59l3.01.27.27 3.1h-19.65l.27-3.1 2.48-.27c2.12-.18 3.01-.62 3.01-1.68v-46.11c0-1.06-.27-1.77-.97-2.04l-5.93-2.48.27-2.21 13.89-3.8v27h.44c4.51-3.72 9.38-6.28 14.16-6.28 2.57 0 5.4.88 7.26 2.74 2.39 2.39 3.36 5.66 3.36 9.91v23.28c0 .8.44 1.33 3.63 1.68l2.3.27.27 3.1h-19.03z"/><path d="m434.53 61.88.27-3.1 2.3-.27c2.57-.18 3.01-.8 3.01-1.68v-18.5c0-8.67-2.83-11.33-8.14-11.33-3.81 0-7.43 1.95-9.82 3.72v26.2c0 .88.53 1.42 3.36 1.59l3.01.27.26 3.1h-19.65l.27-3.1 2.48-.27c2.12-.18 3.01-.62 3.01-1.68v-22.39c0-5.58-.62-6.37-3.8-7.17l-2.12-.53.09-2.39 13.1-3.45v6.28h.44c4.51-3.72 9.38-6.28 14.16-6.28 2.57 0 5.4.88 7.26 2.74 2.39 2.39 3.36 5.66 3.36 9.91v23.28c0 .8.44 1.33 3.63 1.68l2.3.27.27 3.1h-19.03z"/><path d="m475.68 63.21c-11.86 0-19.29-9.29-19.29-20.98s9.29-21.33 20.97-21.33 19.21 8.76 19.21 20c0 12.21-8.94 22.3-20.89 22.3zm8.14-35.31c-1.24-1.33-3.81-3.36-7.7-3.36-6.55 0-11.68 5.49-11.68 14.96 0 6.81 1.5 13.27 4.78 16.73 1.24 1.33 3.72 3.36 7.7 3.36 6.28 0 11.59-5.49 11.59-14.96 0-6.81-1.42-13.28-4.69-16.73z"/><path d="m500.73 61.88.27-3.1 2.48-.27c2.12-.18 3.01-.62 3.01-1.68v-46.11c0-1.06-.27-1.77-.97-2.04l-5.93-2.48.27-2.21 13.89-3.8v56.73c0 .88.53 1.42 3.36 1.59l2.57.27.26 3.1h-19.2z"/><path d="m542.94 63.21c-11.86 0-19.29-9.29-19.29-20.98s9.29-21.33 20.97-21.33 19.21 8.76 19.21 20c0 12.21-8.94 22.3-20.89 22.3zm8.14-35.31c-1.24-1.33-3.81-3.36-7.7-3.36-6.55 0-11.68 5.49-11.68 14.96 0 6.81 1.5 13.27 4.78 16.73 1.24 1.33 3.72 3.36 7.7 3.36 6.28 0 11.59-5.49 11.59-14.96 0-6.81-1.42-13.28-4.69-16.73z"/><path d="m599.93 27.19v.53c1.42 1.86 2.48 3.98 2.48 7.35 0 7.79-6.99 14.16-15.66 14.16-1.77 0-3.89-.27-5.31-.62-1.33.62-3.81 2.39-3.81 4.16 0 2.3 2.48 4.16 5.66 4.16 3.89 0 7.61-.27 10.44-.27 7.26 0 12.92 5.22 12.92 11.86 0 9.38-9.47 15.93-22.83 15.93-9.29 0-15.4-4.16-15.4-10.35 0-5.58 4.07-8.5 8.58-10.36v-.35c-3.54-.62-6.02-3.72-6.02-6.64 0-3.54 3.19-6.82 7.26-8.67 0-.44.35-.44.35-.44-4.51-2.12-7.52-6.11-7.52-12.21 0-8.23 6.81-14.51 15.84-14.51 4.25 0 7.43.97 10.62 2.48h12.04v5.49l-9.65-1.68zm-9.29 36.73c-3.45-.09-6.2.18-10.09.18-1.59.62-5.31 3.36-5.31 7.61 0 5.75 5.22 9.38 12.66 9.38s12.04-3.98 12.04-9.2c0-4.51-2.3-7.7-9.29-7.96zm1.42-37.79c-1.42-1.42-3.1-2.21-5.13-2.21-4.87 0-8.32 4.16-8.32 10.09 0 4.43 1.42 8.05 3.63 10.27 1.24 1.24 2.83 1.95 4.51 1.95 2.39 0 4.25-.62 5.58-1.95 1.86-1.77 2.74-4.78 2.74-8.94 0-3.89-.97-7.17-3.01-9.2z"/><path d="m614.45 61.88.27-3.1 2.48-.27c2.12-.18 3.01-.62 3.01-1.68v-22.39c0-5.58-.62-6.37-3.81-7.17l-2.12-.53.09-2.39 13.1-3.45v36.02c0 .88.53 1.42 3.36 1.59l2.57.27.27 3.1h-19.2zm8.5-48.59c-3.27 0-4.78-2.48-4.78-5.22s1.5-5.22 4.78-5.22 4.78 2.48 4.78 5.22-1.5 5.22-4.78 5.22z"/><path d="m655.16 63.21c-10.44 0-17.79-8.67-17.79-19.82 0-13.19 9.29-22.48 20.62-22.48 8.41 0 13.81 5.31 13.81 13.28 0 1.42-.18 3.36-.53 4.78l-26.28-.35v.97c0 10.18 5.84 17.26 13.72 17.26 3.72 0 7.79-1.33 10.8-4.69l1.77.97c-3.27 6.46-9.12 10.09-16.11 10.09zm.88-39.03c-4.78 0-9.74 4.16-10.8 11.59h18.41c.44-7.17-2.74-11.59-7.61-11.59z"/><path d="m690.82 63.21c-4.51 0-8.67-.62-11.95-1.86l-.53-11.68h4.42l2.04 7.79c1.95 1.42 4.51 2.48 7.08 2.48 3.54 0 8.05-2.66 8.05-7.08 0-4.16-4.69-5.84-9.74-7.79-5.84-2.3-11.68-4.87-11.68-12.48 0-5.84 4.96-11.86 14.16-11.86 4.25 0 6.73.71 8.85 1.5l2.74-1.15.53 12.57h-4.34l-1.77-7.35c-1.86-1.42-4.6-2.21-6.73-2.21-3.89 0-6.99 2.39-6.99 5.84 0 4.07 3.45 5.49 9.47 7.88 5.75 2.3 11.86 5.04 11.86 12.57 0 6.64-5.58 12.83-15.49 12.83z"/></g></svg>